<svg height='100px' width='100px'  fill="#000000" xmlns="http://www.w3.org/2000/svg" xmlns:xlink="http://www.w3.org/1999/xlink" version="1.1" x="0px" y="0px" viewBox="0 0 96 96" enable-background="new 0 0 96 96" xml:space="preserve"><g><path d="M48.0497,18.889c5.4963,0,9.2265,0.8066,11.3876,1.4831l0.5852-1.8684c-2.2911-0.7176-6.2288-1.573-11.9728-1.573   c-1.9803,0-3.9004,0.1042-5.7077,0.3098l0.2218,1.9459C44.2975,18.9889,46.143,18.889,48.0497,18.889z"></path><path d="M40.2652,19.5162l-0.3385-1.9287c-1.3913,0.2434-2.687,0.5517-3.8507,0.9156l0.5852,1.8694   C37.7436,20.0335,38.9561,19.7452,40.2652,19.5162z"></path><path d="M59.5836,85.0004c-0.5938,0.152-1.2144,0.2926-1.8589,0.4203l0.3825,1.921c0.6789-0.1353,1.3339-0.2835,1.9622-0.4442   L59.5836,85.0004z"></path><path d="M52.0247,86.1708c-0.6301,0.0454-1.2708,0.0798-1.921,0.1038l0.0727,1.9574c0.6732-0.0249,1.3368-0.0612,1.988-0.1076   L52.0247,86.1708z"></path><path d="M42.4176,86.0245l-0.2046,1.9478c0.6502,0.0679,1.3129,0.1253,1.988,0.1702l0.132-1.9536   C43.6827,86.145,43.043,86.0905,42.4176,86.0245z"></path><path d="M48.1817,88.2697v-1.9583l-0.132,0.0005c-0.6053,0-1.2039-0.0096-1.7967-0.0282l-0.0612,1.9574   c0.6101,0.0196,1.2278,0.0292,1.8627,0.0292c0.0019,0,0.0038,0,0.0057,0L48.1817,88.2697z"></path><path d="M40.5147,85.7874c-0.6483-0.0942-1.2785-0.2003-1.8876-0.317l-0.3691,1.923c0.6378,0.1224,1.2966,0.2333,1.9736,0.3323   L40.5147,85.7874z"></path><path d="M55.841,85.7501c-0.6187,0.0937-1.2536,0.1764-1.9029,0.2481l0.2142,1.9469c0.676-0.0746,1.3377-0.1611,1.9813-0.2587   L55.841,85.7501z"></path><rect x="37.1957" y="30.9865" width="2.336" height="1.9583"></rect><rect x="43.5106" y="30.9865" width="2.336" height="1.9583"></rect><rect x="50.2529" y="30.9865" width="2.336" height="1.9583"></rect><rect x="56.5677" y="30.9865" width="2.336" height="1.9583"></rect><rect x="37.1957" y="45.5086" width="2.336" height="1.9583"></rect><rect x="43.5106" y="45.5086" width="2.336" height="1.9583"></rect><rect x="50.2529" y="45.5086" width="2.336" height="1.9583"></rect><rect x="56.5677" y="45.5086" width="2.336" height="1.9583"></rect><rect x="37.4606" y="59.3164" width="2.336" height="1.9583"></rect><rect x="43.7755" y="59.3164" width="2.336" height="1.9583"></rect><rect x="50.5177" y="59.3164" width="2.336" height="1.9583"></rect><rect x="56.8316" y="59.3164" width="2.336" height="1.9583"></rect><rect x="37.4606" y="73.6137" width="2.336" height="1.9583"></rect><rect x="43.7755" y="73.6137" width="2.336" height="1.9583"></rect><rect x="50.5177" y="73.6137" width="2.336" height="1.9583"></rect><rect x="56.8316" y="73.6137" width="2.336" height="1.9583"></rect><path d="M76.2859,18.1737h8.3765v10.5848H68.9995v-9.3207c0-5.1707-10.7938-7.9605-20.9498-7.9605S27.1,14.2671,27.1,19.4378   v18.3388H11.3367V27.1918h8.3765V10.7071H1v16.4847h8.3784V39.735H27.1v25.5487H9.3784v12.5432H1v16.4847h18.7132V77.8269h-8.3765   V67.242H27.1v8.6571h0.0583c0.8188,4.7763,11.1457,7.3466,20.8914,7.3466s20.0726-2.5703,20.8914-7.3466h0.0583V57.8649h15.6628   v10.5848h-8.3765v16.4852H95V68.4497h-8.3793V55.9065H68.9995V30.7169h17.6212V18.1737H95V1.6885H76.2859V18.1737z M2.9583,12.6654   h14.7965v12.568H2.9583V12.6654z M17.7548,92.3532H2.9583v-12.568h14.7965V92.3532z M93.0417,82.9766H78.2442V70.408h14.7975   V82.9766z M48.0497,13.4356c11.1916,0,18.9914,3.1632,18.9914,6.0022c0,2.8385-7.7999,6.0017-18.9914,6.0017   s-18.9914-3.1632-18.9914-6.0017C29.0583,16.5988,36.8582,13.4356,48.0497,13.4356z M48.0497,81.2874   c-11.1916,0-18.9914-3.1632-18.9914-6.0017V64.8378c3.5656,2.9075,11.4522,4.4462,18.9914,4.4462s15.4258-1.5387,18.9914-4.4462   v10.4479C67.0412,78.1242,59.2413,81.2874,48.0497,81.2874z M48.0497,67.3257c-11.1916,0-18.9914-3.1632-18.9914-6.0022V50.8757   c3.5656,2.9073,11.4522,4.4461,18.9914,4.4461s15.4258-1.5387,18.9914-4.4461v10.4478   C67.0412,64.1625,59.2413,67.3257,48.0497,67.3257z M48.0497,53.3635c-11.1916,0-18.9914-3.1632-18.9914-6.0017V36.9138   c3.5656,2.9075,11.4522,4.4462,18.9914,4.4462s15.4258-1.5387,18.9914-4.4462v10.4479   C67.0412,50.2003,59.2413,53.3635,48.0497,53.3635z M48.0497,39.4017c-11.1916,0-18.9914-3.1632-18.9914-6.0022V22.9518   c3.5656,2.9073,11.4522,4.4461,18.9914,4.4461s15.4258-1.5387,18.9914-4.4461v10.4478   C67.0412,36.2386,59.2413,39.4017,48.0497,39.4017z M78.2442,3.6468h14.7975v12.5685H78.2442V3.6468z"></path><rect x="80.7447" y="6.1865" width="9.7955" height="1.9583"></rect><rect x="80.7447" y="10.7238" width="6.7165" height="1.9583"></rect><rect x="80.7447" y="73.4445" width="9.7955" height="1.9583"></rect><rect x="80.7447" y="77.9818" width="6.7165" height="1.9583"></rect><rect x="5.4588" y="82.8217" width="9.7955" height="1.9583"></rect><rect x="5.4588" y="87.3589" width="6.7165" height="1.9583"></rect><rect x="5.4588" y="15.7014" width="9.7955" height="1.9583"></rect><rect x="5.4588" y="20.2387" width="6.7165" height="1.9583"></rect><rect x="22.7721" y="50.852" width="1.9583" height="9.041"></rect><rect x="22.7721" y="45.2848" width="1.9583" height="2.8275"></rect><rect x="71.4264" y="41.0441" width="1.9583" height="9.2189"></rect><rect x="71.4264" y="34.7999" width="1.9583" height="3.2985"></rect></g></svg>