<svg height='100px' width='100px'  fill="#000000" xmlns="http://www.w3.org/2000/svg" xmlns:xlink="http://www.w3.org/1999/xlink" version="1.1" x="0px" y="0px" viewBox="0 0 96 96" enable-background="new 0 0 96 96" xml:space="preserve"><g><path d="M88.9366,46.298c0.2343,0.5842,0.4509,1.1776,0.6493,1.779l1.8598-0.612c-0.2108-0.6416-0.4418-1.2742-0.6923-1.8967   L88.9366,46.298z"></path><path d="M91.9602,65.3951l-1.8924-0.503c-0.163,0.6129-0.3452,1.2182-0.546,1.8149l1.856,0.6244   C91.5925,66.6936,91.7886,66.0419,91.9602,65.3951z"></path><path d="M88.0861,70.2115l1.7604,0.8577c0.294-0.6043,0.5699-1.2192,0.8262-1.8445l-1.812-0.742   C88.6206,69.0689,88.3615,69.6455,88.0861,70.2115z"></path><path d="M90.8276,53.6121c0.0775,0.6239,0.1358,1.2531,0.1745,1.8881l1.9545-0.1186c-0.0406-0.676-0.1028-1.3473-0.186-2.0114   L90.8276,53.6121z"></path><path d="M93.0139,57.4006l-1.9583-0.0057c-0.0019,0.6364-0.0239,1.2679-0.066,1.8947l1.9536,0.131   C92.9881,58.7527,93.012,58.079,93.0139,57.4006z"></path><path d="M92.7448,61.4311l-1.9421-0.2553c-0.0827,0.6297-0.1855,1.2531-0.3074,1.8699l1.921,0.3806   C92.5463,62.7693,92.6568,62.098,92.7448,61.4311z"></path><path d="M85.2428,39.7029c0.3763,0.5068,0.7368,1.026,1.08,1.5562l1.6437-1.0643c-0.3662-0.5656-0.7506-1.1193-1.1518-1.6595   L85.2428,39.7029z"></path><path d="M90.118,49.8948c0.1573,0.6082,0.296,1.2244,0.4145,1.8479l1.9239-0.3672c-0.1272-0.6646-0.2744-1.322-0.4423-1.9712   L90.118,49.8948z"></path><path d="M82.7958,36.8094c0.4375,0.4556,0.8611,0.9251,1.2689,1.4071l1.4955-1.2641c-0.4346-0.5144-0.8859-1.0145-1.3531-1.4998   L82.7958,36.8094z"></path><path d="M87.301,42.8824c0.3084,0.5503,0.5995,1.1111,0.8726,1.6815l1.7661-0.8453c-0.2912-0.6086-0.6015-1.2067-0.9299-1.7934   L87.301,42.8824z"></path><path d="M7.1169,68.4272c-0.2381-0.5833-0.4576-1.1752-0.6579-1.7762l-1.8579,0.6196c0.2108,0.6316,0.447,1.2694,0.7023,1.8957   L7.1169,68.4272z"></path><path d="M5.2729,45.5029l1.8159,0.7344c0.2371-0.5871,0.4929-1.1651,0.7664-1.7327l-1.7642-0.8501   C5.7993,44.2598,5.5243,44.8818,5.2729,45.5029z"></path><path d="M3.2366,53.307l1.943,0.2467c0.0798-0.6301,0.1798-1.2546,0.2988-1.8727l-1.923-0.3701   C3.4288,51.9693,3.3222,52.6348,3.2366,53.307z"></path><path d="M5.9164,64.8347c-0.1606-0.6077-0.3022-1.2235-0.4236-1.846l-1.922,0.3758c0.1286,0.6579,0.2806,1.3205,0.4523,1.9703   L5.9164,64.8347z"></path><path d="M3.052,59.3599c0.0445,0.676,0.1095,1.3464,0.1955,2.0104l1.9421-0.2515c-0.0803-0.623-0.1415-1.2522-0.1831-1.8871   L3.052,59.3599z"></path><path d="M4.0025,49.3387l1.8952,0.4944c0.1602-0.6139,0.3395-1.2201,0.5374-1.8178l-1.8589-0.6158   C4.3645,48.0383,4.1718,48.6909,4.0025,49.3387z"></path><polygon points="10.9332,39.4691 9.3726,38.2863 9.2287,38.4775 10.7998,39.647  "></polygon><path d="M7.0256,41.8626l1.7068,0.961c0.3103-0.5517,0.6378-1.092,0.982-1.6203l-1.6409-1.0691   C7.7083,40.695,7.3555,41.2764,7.0256,41.8626z"></path><path d="M2.9861,57.3255l0.3863,0.0053l1.5715-0.0339c0-0.623,0.0196-1.2416,0.0574-1.8551l-1.9545-0.1214   C3.0061,55.9739,2.9856,56.6332,2.9861,57.3255z"></path><path d="M34.5322,84.3114c0.2511,0,0.4992-0.0122,0.7487-0.019l-7.1816,8.7493h-10.199V95h11.1256l8.9602-10.917   c3.6079-0.4628,6.9937-1.6384,10.014-3.3834c3.8396,2.2184,8.2704,3.5181,12.9954,3.5999l8.781,10.6986H80.902v-1.9583H70.703   l-7.2319-8.8105c13.9626-1.0295,25.0108-12.711,25.0108-26.932c0-9.3999-4.8285-17.6898-12.1325-22.5305   c0.0216-0.4094,0.0479-0.8174,0.0479-1.2315c0-10.3065-5.8082-19.2797-14.3229-23.83l7.7173-6.747h11.1074V1H69.0564   l-8.8977,7.7788c-3.3044-1.4431-6.9485-2.249-10.7789-2.249c-14.7716,0-26.8047,11.9233-26.9965,26.6503   C13.5746,37.6357,7.5176,46.7696,7.5176,57.2973C7.5176,72.1928,19.6362,84.3114,34.5322,84.3114z M86.5236,57.2973   c0,13.8159-11.2399,25.0558-25.0558,25.0558c-4.1766,0-8.1144-1.0327-11.5808-2.8477c6.9502-4.8203,11.537-12.8122,11.6506-21.8657   c8.0209-4.0372,13.4956-11.7853,14.6243-20.619C82.4344,41.579,86.5236,48.9677,86.5236,57.2973z M40.7047,71.3074   c-0.8185-1.2093-1.5284-2.4965-2.1288-3.843h3.7781V65.506h-4.5539c-0.4325-1.2434-0.7685-2.5309-1.0015-3.854h14.9827v-1.9583   h-15.252c-0.1417-1.4857-0.1401-2.6654-0.0715-3.8545h8.8007v-1.9583h-8.6075c0.1808-1.3199,0.4617-2.608,0.8405-3.8545h12.6752   v-1.9583H38.1811c0.5349-1.3449,1.1786-2.6347,1.9282-3.854h4.4412v-1.9583h-3.1072c1.8027-2.3938,4.0266-4.4506,6.5567-6.0704   c2.5301,1.6198,4.7541,3.6765,6.5567,6.0704H47.584v1.9583h8.3067c0.7496,1.2193,1.3933,2.5091,1.9282,3.854h-3.9085v1.9583h4.598   c0.3788,1.2465,0.6597,2.5346,0.8405,3.8545H48.8109v1.9583h10.7313c0.0692,1.2001,0.07,2.3703-0.0715,3.8545h-5.108v1.9583h4.8386   c-0.233,1.3231-0.5689,2.6106-1.0015,3.854H45.1945v1.9583h12.2297c-0.6004,1.3465-1.3103,2.6338-2.1288,3.843h-4.3545v1.9583   h2.8841c-1.6596,2.0017-3.6274,3.7367-5.8249,5.1435c-2.1975-1.4068-4.1653-3.1418-5.8249-5.1435h6.3131v-1.9583H40.7047z    M34.6852,53.8195c-6.267-4.5281-10.0572-11.6454-10.3165-19.4161c3.1087-1.3856,6.5461-2.1623,10.1634-2.1623   c4.1766,0,8.1143,1.0328,11.5807,2.8478C39.9774,39.3442,35.6861,46.0716,34.6852,53.8195z M61.4774,55.468   c-0.5676-8.4382-5.0234-15.8245-11.5903-20.3791c3.4664-1.815,7.4042-2.8478,11.5807-2.8478c4.6938,0,9.0884,1.3002,12.8479,3.5552   C73.5837,44.0881,68.7534,51.4642,61.4774,55.468z M49.3798,8.4882c13.8178,0,25.0591,11.236,25.0591,25.0472   c0,0.0239-0.0028,0.0478-0.0028,0.0717c-3.8518-2.1171-8.2713-3.3242-12.9683-3.3242c-4.9025,0-9.5,1.3194-13.4678,3.6119   c-3.9679-2.2925-8.5653-3.6119-13.4678-3.6119c-3.5958,0-7.0269,0.712-10.1676,1.9929   C25.0231,19.0475,35.9912,8.4882,49.3798,8.4882z M22.449,35.3559c0.5535,8.4123,4.9667,16.0203,12.0364,20.6918   c-0.4376,9.5437,4.1362,18.2621,11.6275,23.4577c-3.4664,1.815-7.4042,2.8477-11.5808,2.8477   c-13.8159,0-25.0562-11.2399-25.0562-25.0558C9.4759,47.8605,14.7219,39.6283,22.449,35.3559z"></path><path d="M22.7501,16.6533l1.6523,1.0518c0.3399-0.534,0.6961-1.0566,1.0681-1.5668l-1.5825-1.1532   C23.4922,15.5288,23.1121,16.0848,22.7501,16.6533z"></path><path d="M32.7067,6.7742c-0.5713,0.3567-1.1307,0.732-1.6777,1.1245l1.1417,1.5911c0.5125-0.3677,1.0375-0.72,1.5735-1.0547   L32.7067,6.7742z"></path><path d="M29.426,9.1288c-0.5202,0.426-1.0279,0.8692-1.5204,1.3282l1.3339,1.4334c0.4628-0.4303,0.939-0.8467,1.4276-1.2469   L29.426,9.1288z"></path><path d="M27.8941,13.2258l-1.4229-1.3454c-0.4623,0.4886-0.9094,0.993-1.3406,1.5108l1.5051,1.2526   C27.0402,14.1576,27.4605,13.6847,27.8941,13.2258z"></path><polygon points="34.8429,5.5512 34.4538,5.7577 35.3841,7.4808 35.7456,7.2896  "></polygon><path d="M18.3506,27.8764l1.9268,0.3509c0.1138-0.6244,0.2467-1.2421,0.3997-1.8522l-1.9-0.4752   C18.615,26.5478,18.4715,27.2128,18.3506,27.8764z"></path><path d="M20.8042,20.1942l1.7728,0.8319c0.2692-0.5737,0.5556-1.1369,0.8592-1.6896l-1.7164-0.9428   C21.3961,18.9827,21.0906,19.5832,20.8042,20.1942z"></path><path d="M19.3288,23.9559l1.8656,0.5957c0.1927-0.6039,0.405-1.1991,0.6349-1.7853l-1.8235-0.7153   C19.7605,22.6765,19.5348,23.3119,19.3288,23.9559z"></path><rect x="28.6466" y="34.4031" width="2.3772" height="1.9583"></rect><rect x="33.3431" y="33.8571" width="2.3776" height="1.9583"></rect><rect x="31.484" y="38.2033" transform="matrix(0.021 0.9998 -0.9998 0.021 71.1654 6.109)" width="1.9588" height="2.3777"></rect><rect x="29.1726" y="42.5878" width="2.3776" height="1.9583"></rect><rect x="32.4634" y="45.3551" width="2.3776" height="1.9583"></rect><rect x="35.0968" y="39.9764" width="2.3776" height="1.9583"></rect><rect x="38.6047" y="35.3775" width="2.3776" height="1.9583"></rect><rect x="26.7949" y="38.2227" width="2.3776" height="1.9583"></rect><path d="M70.0834,40.9685H68.125c0,0.7095-0.5776,1.2871-1.2871,1.2871v1.9583C68.6275,44.2139,70.0834,42.7581,70.0834,40.9685z"></path><path d="M62.6641,48.7612v1.9583c1.7896,0,3.2454-1.4558,3.2454-3.2449h-1.9583C63.9511,48.1841,63.3736,48.7612,62.6641,48.7612z"></path><path d="M69.2954,35.8001h-1.9583c0,0.7095-0.5776,1.2871-1.2871,1.2871v1.9583C67.8396,39.0455,69.2954,37.5897,69.2954,35.8001z"></path><path d="M62.1152,34.667h-1.9583c0,0.7095-0.5771,1.2871-1.2866,1.2871v1.9583C60.6594,37.9124,62.1152,36.4566,62.1152,34.667z"></path><path d="M60.9548,40.9685c0,0.7095-0.5776,1.2871-1.2871,1.2871v1.9583c1.7896,0,3.2454-1.4558,3.2454-3.2454H60.9548z"></path></g></svg>