<svg xmlns="http://www.w3.org/2000/svg" xmlns:xlink="http://www.w3.org/1999/xlink" viewBox="0 0 406.6 551.14"><defs><style>.cls-1{fill:url(#radial-gradient);}.cls-2{fill:#e9f3ff;}.cls-3{fill:#404b7c;}.cls-4{fill:#ecbdbb;}.cls-5{fill:#9ab3da;}.cls-6{fill:#fff;}.cls-7{fill:#f68d88;}</style><radialGradient id="radial-gradient" cx="401.88" cy="-39.44" r="297.8" gradientTransform="translate(-130.81 -28.08) rotate(57.9)" gradientUnits="userSpaceOnUse"><stop offset="0" stop-color="#CFD11A" stop-opacity="1"/><stop offset="1" stop-color="#CFD11A"/></radialGradient></defs><g id="Layer_2" data-name="Layer 2"><g id="Layer_15" data-name="Layer 15"><polygon class="cls-1" points="67.9 551.14 131.03 275.57 194.16 0 406.6 338.7 67.9 551.14"/></g><g id="ORNAMENT_4" data-name="ORNAMENT 4"><circle class="cls-2" cx="43.5" cy="314.97" r="7.87"/><circle class="cls-2" cx="23.88" cy="304.84" r="2.25"/><circle class="cls-2" cx="282.5" cy="156.26" r="3.38"/><circle class="cls-2" cx="212.5" cy="92.59" r="5.5"/><circle class="cls-2" cx="226.66" cy="101.44" r="1.85"/><circle class="cls-2" cx="188.71" cy="81.9" r="1.55"/><circle class="cls-2" cx="94.56" cy="93.72" r="4.37"/><circle class="cls-2" cx="80.66" cy="85.71" r="1.91"/><path class="cls-3" d="M179.5,94.3a.5.5,0,0,1-.5-.5V90.47a.5.5,0,0,1,1,0V93.8A.5.5,0,0,1,179.5,94.3Z"/><path class="cls-3" d="M185.06,96.53h-3.33a.5.5,0,0,1-.5-.5.51.51,0,0,1,.5-.5h3.33a.5.5,0,0,1,.5.5A.5.5,0,0,1,185.06,96.53Z"/><path class="cls-3" d="M179.5,102.09a.5.5,0,0,1-.5-.5V98.27a.5.5,0,1,1,1,0v3.32A.5.5,0,0,1,179.5,102.09Z"/><path class="cls-3" d="M177.27,96.53h-3.33a.5.5,0,0,1-.5-.5.5.5,0,0,1,.5-.5h3.33a.51.51,0,0,1,.5.5A.5.5,0,0,1,177.27,96.53Z"/><path class="cls-3" d="M115.39,321.19a.5.5,0,0,1-.5-.5v-3.32a.5.5,0,0,1,.5-.5.5.5,0,0,1,.5.5v3.32A.5.5,0,0,1,115.39,321.19Z"/><path class="cls-3" d="M121,323.43h-3.32a.5.5,0,0,1-.5-.5.5.5,0,0,1,.5-.5H121a.5.5,0,0,1,.5.5A.5.5,0,0,1,121,323.43Z"/><path class="cls-3" d="M115.39,329a.5.5,0,0,1-.5-.5v-3.33a.51.51,0,0,1,.5-.5.5.5,0,0,1,.5.5v3.33A.5.5,0,0,1,115.39,329Z"/><path class="cls-3" d="M113.16,323.43h-3.33a.5.5,0,0,1-.5-.5.5.5,0,0,1,.5-.5h3.33a.5.5,0,0,1,.5.5A.51.51,0,0,1,113.16,323.43Z"/><path class="cls-3" d="M18.31,279.9a.5.5,0,0,1-.5-.5v-3.33a.51.51,0,0,1,.5-.5.5.5,0,0,1,.5.5v3.33A.5.5,0,0,1,18.31,279.9Z"/><path class="cls-3" d="M23.88,282.13H20.55a.5.5,0,0,1-.5-.5.5.5,0,0,1,.5-.5h3.33a.51.51,0,0,1,.5.5A.5.5,0,0,1,23.88,282.13Z"/><path class="cls-3" d="M18.31,287.7a.51.51,0,0,1-.5-.5v-3.33a.5.5,0,0,1,.5-.5.5.5,0,0,1,.5.5v3.33A.5.5,0,0,1,18.31,287.7Z"/><path class="cls-3" d="M16.08,282.13H12.75a.5.5,0,0,1-.5-.5.5.5,0,0,1,.5-.5h3.33a.5.5,0,0,1,.5.5A.5.5,0,0,1,16.08,282.13Z"/><path class="cls-3" d="M224.25,308.67a.5.5,0,0,1-.5-.5v-3.33a.5.5,0,1,1,1,0v3.33A.5.5,0,0,1,224.25,308.67Z"/><path class="cls-3" d="M229.81,310.91h-3.33a.51.51,0,0,1-.5-.5.5.5,0,0,1,.5-.5h3.33a.5.5,0,0,1,.5.5A.5.5,0,0,1,229.81,310.91Z"/><path class="cls-3" d="M224.25,316.47a.5.5,0,0,1-.5-.5v-3.33a.5.5,0,0,1,1,0V316A.5.5,0,0,1,224.25,316.47Z"/><path class="cls-3" d="M222,310.91h-3.33a.5.5,0,0,1-.5-.5.5.5,0,0,1,.5-.5H222a.5.5,0,0,1,.5.5A.51.51,0,0,1,222,310.91Z"/><path class="cls-3" d="M274.58,140.34a.5.5,0,0,1-.5-.5v-3.33a.51.51,0,0,1,.5-.5.5.5,0,0,1,.5.5v3.33A.5.5,0,0,1,274.58,140.34Z"/><path class="cls-3" d="M280.15,142.57h-3.33a.5.5,0,0,1-.5-.5.5.5,0,0,1,.5-.5h3.33a.51.51,0,0,1,.5.5A.5.5,0,0,1,280.15,142.57Z"/><path class="cls-3" d="M274.58,148.14a.51.51,0,0,1-.5-.5v-3.33a.5.5,0,0,1,.5-.5.5.5,0,0,1,.5.5v3.33A.5.5,0,0,1,274.58,148.14Z"/><path class="cls-3" d="M272.35,142.57H269a.5.5,0,0,1-.5-.5.5.5,0,0,1,.5-.5h3.33a.5.5,0,0,1,.5.5A.5.5,0,0,1,272.35,142.57Z"/></g><g id="CIRCLE"><path class="cls-2" d="M10.29,87.09a35.13,35.13,0,1,0,49.67,0A35.11,35.11,0,0,0,10.29,87.09Zm37.09,37.1a17.33,17.33,0,1,1,0-24.52A17.34,17.34,0,0,1,47.38,124.19Z"/><path class="cls-4" d="M35.12,78.82V92.61A19.33,19.33,0,1,1,15.8,111.93H2a33.11,33.11,0,1,0,33.1-33.11Z"/></g><g id="REPORT_TABLE" data-name="REPORT TABLE"><rect class="cls-5" x="141.29" y="289.3" width="17.18" height="229.34"/><polygon class="cls-3" points="141.28 289.31 158.47 289.31 158.47 305.75 141.28 307.36 141.28 289.31"/><polygon class="cls-5" points="109.74 289.31 102.44 310.98 32.47 518.64 15.29 518.64 84.69 312.63 92.55 289.31 109.74 289.31"/><polygon class="cls-3" points="92.55 289.31 109.74 289.31 102.44 310.98 84.69 312.63 92.55 289.31"/><polygon class="cls-5" points="284.47 518.64 267.29 518.64 194.44 302.42 190.02 289.31 207.21 289.31 211.09 300.86 284.47 518.64"/><polygon class="cls-3" points="211.09 300.86 194.44 302.42 190.02 289.31 207.21 289.31 211.09 300.86"/><rect class="cls-2" x="38.29" y="118.93" width="223" height="172"/><rect class="cls-5" x="35.63" y="116.55" width="228.5" height="8"/><rect class="cls-5" x="35.63" y="285.3" width="228.5" height="8"/><path class="cls-3" d="M107.61,114.22h84.53a2.52,2.52,0,0,1,2.52,2.52v9.84a6.39,6.39,0,0,1-6.39,6.39H111.48a6.39,6.39,0,0,1-6.39-6.39v-9.84A2.52,2.52,0,0,1,107.61,114.22Z"/><circle class="cls-6" cx="112.59" cy="122.47" r="2.69"/><circle class="cls-6" cx="187.16" cy="122.47" r="2.69"/><path class="cls-5" d="M133.66,109.47h32.44a1,1,0,0,1,1,1v3.78a0,0,0,0,1,0,0H132.69a0,0,0,0,1,0,0v-3.78A1,1,0,0,1,133.66,109.47Z"/><path class="cls-4" d="M212.5,183.42l-28.17,28.17a39.86,39.86,0,0,1,0-56.34Z"/><path class="cls-6" d="M252.34,183.42H212.5V143.59A39.84,39.84,0,0,1,252.34,183.42Z"/><path class="cls-5" d="M252.34,183.42a39.84,39.84,0,0,1-68,28.17l28.17-28.17Z"/><path class="cls-3" d="M212.5,143.59v39.83l-28.17-28.17A39.75,39.75,0,0,1,212.5,143.59Z"/><rect class="cls-2" x="180.42" y="175.72" width="14.88" height="5.12" rx="0.75"/><rect class="cls-2" x="180.42" y="183.97" width="14.88" height="5.12" rx="0.75"/><rect class="cls-6" x="207" y="233.97" width="35.63" height="6.63" rx="1.44"/><rect class="cls-6" x="218" y="249.09" width="24.63" height="6.63" rx="1.44"/><rect class="cls-6" x="231.88" y="264.22" width="10.75" height="6.63" rx="1.44"/><rect class="cls-5" x="50.25" y="260.84" width="20.38" height="15.38" rx="2.94"/><rect class="cls-5" x="78.75" y="260.84" width="84.56" height="15.38" rx="2.94"/><rect class="cls-4" x="49.29" y="156.93" width="22.8" height="76"/><rect class="cls-4" x="94.9" y="172.13" width="22.8" height="15.2"/><rect class="cls-4" x="117.7" y="187.33" width="22.8" height="15.2"/><rect class="cls-4" x="117.7" y="217.73" width="22.8" height="15.2"/><line class="cls-6" x1="49.29" y1="156.93" x2="163.31" y2="156.93"/><path class="cls-3" d="M163.31,157.43h-114a.51.51,0,0,1-.5-.5.5.5,0,0,1,.5-.5h114a.5.5,0,0,1,.5.5A.5.5,0,0,1,163.31,157.43Z"/><line class="cls-6" x1="49.29" y1="172.13" x2="163.31" y2="172.13"/><path class="cls-3" d="M163.31,172.63h-114a.51.51,0,0,1-.5-.5.5.5,0,0,1,.5-.5h114a.5.5,0,0,1,.5.5A.5.5,0,0,1,163.31,172.63Z"/><line class="cls-6" x1="49.29" y1="187.33" x2="163.31" y2="187.33"/><path class="cls-3" d="M163.31,187.83h-114a.51.51,0,0,1-.5-.5.5.5,0,0,1,.5-.5h114a.5.5,0,0,1,.5.5A.5.5,0,0,1,163.31,187.83Z"/><line class="cls-6" x1="49.29" y1="202.53" x2="163.31" y2="202.53"/><path class="cls-3" d="M163.31,203h-114a.51.51,0,0,1-.5-.5.5.5,0,0,1,.5-.5h114a.5.5,0,0,1,.5.5A.5.5,0,0,1,163.31,203Z"/><line class="cls-6" x1="49.29" y1="217.73" x2="163.31" y2="217.73"/><path class="cls-3" d="M163.31,218.23h-114a.51.51,0,0,1-.5-.5.5.5,0,0,1,.5-.5h114a.5.5,0,0,1,.5.5A.5.5,0,0,1,163.31,218.23Z"/><line class="cls-6" x1="49.29" y1="232.93" x2="163.31" y2="232.93"/><path class="cls-3" d="M163.31,233.43h-114a.51.51,0,0,1-.5-.5.5.5,0,0,1,.5-.5h114a.5.5,0,0,1,.5.5A.5.5,0,0,1,163.31,233.43Z"/><line class="cls-6" x1="49.29" y1="232.93" x2="49.29" y2="156.93"/><path class="cls-3" d="M49.29,233.43a.51.51,0,0,1-.5-.5v-76a.5.5,0,0,1,.5-.5.5.5,0,0,1,.5.5v76A.5.5,0,0,1,49.29,233.43Z"/><line class="cls-6" x1="72.1" y1="232.93" x2="72.1" y2="156.93"/><path class="cls-3" d="M72.1,233.43a.5.5,0,0,1-.5-.5v-76a.5.5,0,0,1,.5-.5.5.5,0,0,1,.5.5v76A.51.51,0,0,1,72.1,233.43Z"/><line class="cls-6" x1="94.9" y1="232.93" x2="94.9" y2="156.93"/><path class="cls-3" d="M94.9,233.43a.5.5,0,0,1-.5-.5v-76a.5.5,0,0,1,1,0v76A.5.5,0,0,1,94.9,233.43Z"/><line class="cls-6" x1="117.7" y1="232.93" x2="117.7" y2="156.93"/><path class="cls-3" d="M117.7,233.43a.51.51,0,0,1-.5-.5v-76a.5.5,0,0,1,.5-.5.5.5,0,0,1,.5.5v76A.5.5,0,0,1,117.7,233.43Z"/><line class="cls-6" x1="140.51" y1="232.93" x2="140.51" y2="156.93"/><path class="cls-3" d="M140.51,233.43a.5.5,0,0,1-.5-.5v-76a.5.5,0,0,1,1,0v76A.5.5,0,0,1,140.51,233.43Z"/><line class="cls-6" x1="163.31" y1="232.93" x2="163.31" y2="156.93"/><path class="cls-3" d="M163.31,233.43a.51.51,0,0,1-.5-.5v-76a.5.5,0,0,1,.5-.5.5.5,0,0,1,.5.5v76A.5.5,0,0,1,163.31,233.43Z"/><rect class="cls-3" x="49.29" y="148.84" width="114.02" height="8.08"/><path class="cls-3" d="M163.31,157.43h-114a.51.51,0,0,1-.5-.5v-8.09a.51.51,0,0,1,.5-.5h114a.5.5,0,0,1,.5.5v8.09A.5.5,0,0,1,163.31,157.43Zm-113.52-1h113v-7.09h-113Z"/><circle class="cls-4" cx="48.63" cy="135.47" r="3.5"/><circle class="cls-4" cx="63.38" cy="135.47" r="3.5"/><circle class="cls-4" cx="78.13" cy="135.47" r="3.5"/><rect class="cls-3" x="180.88" y="246.59" width="7.63" height="7.63" rx="1.25"/><path class="cls-6" d="M177.63,250.91H159.38a.51.51,0,0,1-.46-.3L148.54,227.3a.5.5,0,0,1,.92-.41l10.24,23h17.93a.5.5,0,0,1,.5.5A.51.51,0,0,1,177.63,250.91Z"/><path class="cls-6" d="M105.63,250.91H94.38a.5.5,0,0,1-.5-.5.5.5,0,0,1,.5-.5h10.75V180.84a.5.5,0,0,1,.5-.5.5.5,0,0,1,.5.5v69.57A.51.51,0,0,1,105.63,250.91Z"/><rect class="cls-3" x="82.56" y="246.59" width="7.62" height="7.63" rx="1.25"/></g><g id="LEFT_FEET" data-name="LEFT FEET"><path class="cls-4" d="M348.55,481.26l-.86,4.89c-.77,4.51-1.81,10.53-1.81,10.69s-4.92,1.67-4.92,1.67l-5.16-2,.56-8,.52-7.37Z"/><path class="cls-3" d="M348.55,481.26l-.86,4.89c-2.63.55-7.39,1.57-11.33,2.39l.52-7.37Z"/><path class="cls-3" d="M335.38,494.59a19.83,19.83,0,0,0,11.66.34s10.5,7.58,17.17,10,13,4.16,13,14.66H329.29S327.79,503.18,335.38,494.59Z"/><path class="cls-5" d="M355.46,507a.42.42,0,0,1-.22-.05c-6.06-3-13.76-9-13.84-9a.52.52,0,0,1-.09-.71.51.51,0,0,1,.71-.08c.07.06,7.69,6,13.66,8.94a.5.5,0,0,1-.22.95Z"/><path class="cls-7" d="M354,513.09s2.38-7.62,7.63-10.25c0,0,8.87,3,12.62,5.13s4,6.75,4,11.62H328.38v-6.5Z"/><path class="cls-7" d="M386.3,296.59s-14.67,95-17.34,108.33-17.33,78.67-17.33,78.67a86.68,86.68,0,0,1-19.33-1c0-1,5.5-71.17,5.83-77.5.19-3.6-.54-27.74-1.2-48.2-.34-10.34-.66-19.74-.83-25.07-.09-2.67-.14-4.32-.14-4.56,0-1.67-2.64-41.4,11.67-56.67S387.63,268.59,386.3,296.59Z"/><path class="cls-4" d="M355.3,423.57a5.32,5.32,0,0,1-.69,0c-2.34-.27-4.37-1.91-5.71-4.62A18.39,18.39,0,0,1,351,400.6c1.92-2.33,4.26-3.46,6.62-3.19s4.37,1.91,5.71,4.62a17.17,17.17,0,0,1,1.41,9.44h0a17.08,17.08,0,0,1-3.53,8.87A7.83,7.83,0,0,1,355.3,423.57Zm1.66-25.2a6.87,6.87,0,0,0-5.17,2.87,17.37,17.37,0,0,0-2,17.23c1.18,2.39,2.93,3.83,4.93,4.07s4-.78,5.73-2.84a16.07,16.07,0,0,0,3.3-8.35h0a16.1,16.1,0,0,0-1.3-8.88c-1.19-2.39-2.94-3.84-4.94-4.07A5.25,5.25,0,0,0,357,398.37Z"/><path class="cls-4" d="M338.29,479.09h0a.5.5,0,0,1-.46-.54c.06-.61,5.67-60.73,5.67-67.62s2-77.76,2-78.47A.51.51,0,0,1,346,332a.5.5,0,0,1,.49.51c0,.72-2,71.53-2,78.45s-5.44,65.23-5.67,67.71A.49.49,0,0,1,338.29,479.09Z"/><path class="cls-3" d="M348.13,322.92s-.91,16.1-11.2,34c-.34-10.34-.66-19.74-.83-25.07l3.95-1.23S346.51,325.76,348.13,322.92Z"/></g><g id="RIGHT_FEET" data-name="RIGHT FEET"><path class="cls-4" d="M268.31,471.51s-2.34,9.59-3,12.27c-1.16,4.42-2.69,10.34-2.76,10.48s3.79,3.55,3.79,3.55l5.53.31,2.78-7.49,5.19-13.87Z"/><path class="cls-3" d="M268.31,471.51s-2.34,9.59-3,12.27c2.17,1.58,6.09,4.48,9.34,6.85l5.19-13.87Z"/><path class="cls-3" d="M274.48,493.64s-7.33,2.17-13.33.34c0,0-10.5,7.58-17.17,10s-13,4.16-13,14.66H278.9S279.81,502.09,274.48,493.64Z"/><path class="cls-5" d="M253.75,505.59a.49.49,0,0,1-.43-.24.51.51,0,0,1,.18-.69,80.76,80.76,0,0,0,11.17-8.13.51.51,0,0,1,.71.05.49.49,0,0,1-.05.7A83.11,83.11,0,0,1,254,505.53.54.54,0,0,1,253.75,505.59Z"/><path class="cls-7" d="M254.19,512.14s-2.38-7.62-7.63-10.25c0,0-8.87,3-12.62,5.13s-4,6.75-4,11.62h49.87v-6.5Z"/><path class="cls-7" d="M261.88,479.47l18.12,5s25.88-78.88,26.13-79.63S340,330.59,340,330.59s.6-34.77,1.25-44c1-14.16-23.41-37.75-36.91,1s-26,110.75-28.25,118.25S261.88,479.47,261.88,479.47Z"/><path class="cls-4" d="M285.09,416.42a5.93,5.93,0,0,1-1.39-.16c-2.3-.55-4.12-2.42-5.13-5.27a18.37,18.37,0,0,1,4.28-17.92c2.18-2.09,4.65-2.94,6.95-2.39s4.12,2.42,5.13,5.27a17.08,17.08,0,0,1,.27,9.53h0a17.06,17.06,0,0,1-4.55,8.39A8.19,8.19,0,0,1,285.09,416.42Zm3.33-24.9a7.21,7.21,0,0,0-4.88,2.27,17.35,17.35,0,0,0-4,16.87c.89,2.52,2.46,4.16,4.41,4.63s4.1-.3,6-2.14a16.1,16.1,0,0,0,4.27-7.9h0a16.11,16.11,0,0,0-.25-9c-.89-2.52-2.46-4.16-4.41-4.63A5,5,0,0,0,288.42,391.52Z"/><path class="cls-4" d="M340,331.09a.48.48,0,0,1-.23,0,.52.52,0,0,1-.27-.45V285.43a.5.5,0,0,1,.5-.5.5.5,0,0,1,.5.5V329.6c1.83-1.39,6.26-4.88,7.13-6.87s2.09-29.1,2.46-39.32a.48.48,0,0,1,.51-.48.5.5,0,0,1,.49.52c-.14,3.78-1.37,37-2.55,39.68s-8,7.66-8.24,7.87A.53.53,0,0,1,340,331.09Z"/><path class="cls-4" d="M276.63,479.43l-.15,0a.51.51,0,0,1-.33-.63l24-77.33,27.68-62.89a.52.52,0,0,1,.66-.26.5.5,0,0,1,.26.66L301.08,401.8l-24,77.28A.49.49,0,0,1,276.63,479.43Z"/></g><g id="LEFT_ARM" data-name="LEFT ARM"><path class="cls-5" d="M404.59,265.29a7.89,7.89,0,0,1-4.46,3.8c-11.62,4.25-18.88-11.75-24.88-25.88-2.69-6.33-5.76-12.52-8.67-18.7-3.58-7.62-6.94-15.24-9.07-23.17-3.88-14.37,10.24-20.25,15.62-16.25A158.82,158.82,0,0,1,394.88,223C401.84,240.67,408.71,257.46,404.59,265.29Z"/><path class="cls-3" d="M404.59,265.29a7.89,7.89,0,0,1-4.46,3.8c-11.62,4.25-18.88-11.75-24.88-25.88-2.69-6.33-5.76-12.52-8.67-18.7,3.14,0,5.22.08,5.22.08S392,248.93,404.59,265.29Z"/></g><g id="RIGHT_ARM" data-name="RIGHT ARM"><path class="cls-4" d="M264.63,205.72l-8.5-8.13-1-8.62S235,168.91,233.56,168.22s-2.56,1-1.31,2.69S241.56,183,241.56,183l-4.43,11.5s5.06,6.44,7.06,7.69,6.31,1.37,6.31,1.37l9.13,11.07Z"/><path class="cls-4" d="M239.38,180.84c-3.32.31-2.38,4.34-2.38,4.34a3.65,3.65,0,0,0-1.62,4.37,2.94,2.94,0,0,0-1.42,3.38c.46,2.54,4.5,6.12,6.92,6s2.33-3.13,2.33-3.13,2.37-.46,2.12-4.08a3.25,3.25,0,0,0,1.75-3.54C246.67,185.55,241.21,180.68,239.38,180.84Z"/><path class="cls-3" d="M241.76,199.16a.5.5,0,0,1-.21-.95c1.2-.58,1.16-2.42,1.16-2.43a.5.5,0,0,1,.4-.51c.08,0,1.94-.45,1.72-3.56a.52.52,0,0,1,.3-.49,2.74,2.74,0,0,0,1.46-3c-.3-1.86-3.71-5.3-6-6.51a.5.5,0,0,1,.46-.89c2.32,1.21,6.17,4.85,6.56,7.24a3.76,3.76,0,0,1-1.73,3.91c.08,2.83-1.42,3.83-2.15,4.15a3.54,3.54,0,0,1-1.72,3A.42.42,0,0,1,241.76,199.16Z"/><path class="cls-3" d="M241.92,195.68a.48.48,0,0,1-.2,0,13,13,0,0,1-5.9-4.92.5.5,0,0,1,.86-.5,12.3,12.3,0,0,0,5.43,4.5.49.49,0,0,1,.27.65A.51.51,0,0,1,241.92,195.68Z"/><path class="cls-3" d="M244.08,191.84a.44.44,0,0,1-.22-.05,20.13,20.13,0,0,1-6.56-5.61.5.5,0,1,1,.82-.58,19.47,19.47,0,0,0,6.19,5.3.5.5,0,0,1,.22.67A.48.48,0,0,1,244.08,191.84Z"/><path class="cls-4" d="M242.42,189.3c-.24-.38,8-5,8.83-5.33s4.83,4.58,5.17,5.17-.29,8.45-.29,8.45-3.3,1.88-6.13,0-.33-7.2-.33-7.2S244.63,192.89,242.42,189.3Z"/><path class="cls-3" d="M249.23,197.33a.52.52,0,0,1-.42-.22c-1.16-1.73-.54-4.35,0-5.82-2.08.68-5.18.89-6.79-1.72a.64.64,0,0,1-.06-.43c.23-.85,6.68-4.37,7.42-4.77a.51.51,0,0,1,.68.2.5.5,0,0,1-.21.68,73.75,73.75,0,0,0-6.78,4.08c2,2.72,6.22.7,6.41.61a.49.49,0,0,1,.57.09.5.5,0,0,1,.1.57s-1.82,4-.48,6a.5.5,0,0,1-.13.69A.51.51,0,0,1,249.23,197.33Z"/><polygon class="cls-6" points="255.88 221.59 250.25 214.97 260.54 199.97 266.17 205.97 255.88 221.59"/><path class="cls-5" d="M321.63,211.76a215.77,215.77,0,0,1-22.85,31.54c-5.7,6.53-10.4,11-12,11-3.67,0-33.84-31-33.84-31l12.75-19.84,18.67,18.17s12.8-27.8,20.25-34.25c5-4.34,12.63-2.36,16.95,3.31C325.29,195.53,326.56,203.13,321.63,211.76Z"/><path class="cls-3" d="M321.63,211.76a215.77,215.77,0,0,1-22.85,31.54c2.89-13.38,6.4-27.63,6.47-28,4.6-20.78,10.31-26.11,16.33-24.69C325.29,195.53,326.56,203.13,321.63,211.76Z"/><circle class="cls-3" cx="261.19" cy="223.64" r="2.13"/><path class="cls-3" d="M283.62,240.59a.49.49,0,0,1-.48-.39c-1.38-6.65.46-16.77.54-17.2a.5.5,0,1,1,1,.19c0,.1-1.88,10.35-.55,16.8a.49.49,0,0,1-.38.59Z"/></g><g id="BODY"><path class="cls-5" d="M377.63,255.09c-.5-5-4.5-70-4.5-70s-24.75-12.5-39.25-10.5-29.25,12.75-29.25,12.75c-5,27.5,4.75,54.5,3,68.5s-14.75,45.5-14.75,45.5A72.06,72.06,0,0,0,331.46,316c2.85-4.81,13-21.36,13-21.36l15.64,18.26a106.83,106.83,0,0,0,32-15S378.13,260.09,377.63,255.09Z"/><path class="cls-3" d="M305.7,232.8a.51.51,0,0,1-.5-.43c-1.55-10.77-3.9-27-1.42-43a.51.51,0,0,1,.57-.42.52.52,0,0,1,.42.58c-2.27,14.61-.62,28.54,1.42,42.72a.49.49,0,0,1-.42.56Z"/><path class="cls-3" d="M377.17,249.42a.5.5,0,0,1-.5-.46c-.94-13.8-2.91-45.48-3.71-58.46a.5.5,0,0,1,.47-.53.5.5,0,0,1,.53.47c.8,13,2.77,44.66,3.71,58.45a.5.5,0,0,1-.47.53Z"/><polygon class="cls-3" points="310.13 277.1 308.21 283.85 327.29 288.85 329.29 282.01 310.13 277.1"/><polygon class="cls-3" points="373.17 275.25 375.49 281.87 356.75 288.02 354.34 281.32 373.17 275.25"/><path class="cls-3" d="M343.38,294a.48.48,0,0,1-.36-.15l-5-5.19a.52.52,0,0,1-.14-.44c0-.19,3.5-19.77,3.75-51.35a.5.5,0,0,1,.5-.5h0a.51.51,0,0,1,.5.51c-.24,29.73-3.31,48.87-3.72,51.27l4.83,5a.5.5,0,0,1,0,.71A.49.49,0,0,1,343.38,294Z"/><path class="cls-3" d="M335.13,171.47s-6.38,1.25-17.38,7.25a56.8,56.8,0,0,0-8.46,17.54l12.5,2.5-5.66,11,26,25.83,19.33-27.66-7-12.84,12.17-2.33s-5.84-12.37-9-15.54S340.13,170.8,335.13,171.47Z"/><path class="cls-6" d="M334.88,174.78c-3.66.73-11.08,4-14.82,5.75,2,7.42,10.84,36.12,21.73,49.9,0,0,8.53-34.9,12.2-52.38C349.17,176.72,338.68,174,334.88,174.78Z"/><path class="cls-3" d="M346,213c-.77-5.19-3-18.93-6.2-28.24l-3.73-.79-2.6,1.62a175.44,175.44,0,0,0-1.65,27.52c3,6.54,6.37,12.75,10,17.32C341.79,230.43,343.64,222.85,346,213Z"/><path class="cls-5" d="M334.12,192.59a.5.5,0,0,1,0-1,49.94,49.94,0,0,1,6.14-.25.5.5,0,0,1,.47.52.49.49,0,0,1-.53.47,53.25,53.25,0,0,0-6,.25Z"/><path class="cls-6" d="M336.92,185.43a41,41,0,0,0-10,7.33s-1.17-17.83,8.25-19.58,12,17.08,12,17.08S344.75,187.76,336.92,185.43Z"/><path class="cls-5" d="M326.92,193.26a.57.57,0,0,1-.18,0,.5.5,0,0,1-.32-.44c0-.38-.57-9.39,2.6-15.28a.5.5,0,0,1,.88.48c-2.41,4.47-2.56,11-2.52,13.64a40.29,40.29,0,0,1,9.33-6.65.43.43,0,0,1,.35,0,33.16,33.16,0,0,1,9.4,4.11c-.51-2.71-2-9.08-5-12.76a.52.52,0,0,1,.07-.71.5.5,0,0,1,.7.07c4.11,5,5.41,14.14,5.46,14.53a.5.5,0,0,1-.27.52.52.52,0,0,1-.58-.1S344.38,188.2,337,186a41.65,41.65,0,0,0-9.7,7.16A.5.5,0,0,1,326.92,193.26Z"/></g><g id="LEFT_HAND" data-name="LEFT HAND"><rect class="cls-4" x="336.28" y="207.15" width="7.39" height="42.92" rx="1.83" transform="translate(76.22 -84.89) rotate(16.01)"/><path class="cls-7" d="M372.77,217.59l-7.49,26.08-3.34,11.65a1.84,1.84,0,0,1-2.27,1.26l-7.45-2.14-18-5.18a1.82,1.82,0,0,1-1.25-2.26l10.82-37.73A1.84,1.84,0,0,1,346,208l25.49,7.31A1.85,1.85,0,0,1,372.77,217.59Z"/><path class="cls-3" d="M365.28,243.67l-3.34,11.65a1.84,1.84,0,0,1-2.27,1.26l-7.45-2.14L348,242.59Z"/><circle class="cls-5" cx="354.43" cy="226.77" r="3.63"/><path class="cls-4" d="M360,237.59,353.19,235s-2.56-13-3.25-15.25-2.94-.81-3.13,1.13-.5,7-.5,7l-9.06-4.57c-1.25-.62-2.87.88-2.37,3.07,0,0-2.19.56-1.63,4a3.34,3.34,0,0,0-1.06,4.12s-1.94,1.69-.31,4.81c0,0,8.06,5.38,10.75,6.38s6.93,0,6.93,0,8.82,4.44,8.82,4.25S360,237.59,360,237.59Z"/><path class="cls-3" d="M342.17,230.76a.46.46,0,0,1-.23-.06l-5.84-3a.5.5,0,0,1-.21-.67.49.49,0,0,1,.67-.21l5.84,3a.5.5,0,0,1-.23.94Z"/><path class="cls-3" d="M340.58,234.39a.46.46,0,0,1-.22-.06l-5.67-2.92a.5.5,0,1,1,.46-.88l5.66,2.91a.5.5,0,0,1-.23.95Z"/><path class="cls-3" d="M339.13,238.55a.48.48,0,0,1-.26-.07l-5.27-3.1a.51.51,0,0,1-.18-.69.51.51,0,0,1,.69-.17l5.27,3.1a.51.51,0,0,1,.18.69A.5.5,0,0,1,339.13,238.55Z"/><path class="cls-6" d="M367,238.16l-7.25-2.69a102.05,102.05,0,0,0-4.5,17.5s10.38,4.37,10.31,4.12S367,238.16,367,238.16Z"/><path class="cls-5" d="M365.75,236c.11-.36,25.25,9,33.25,14.25s10.63,22-4.25,21.5-34.5-12.88-34.5-12.88S361.38,250.59,365.75,236Z"/><path class="cls-3" d="M378.93,268.56a.57.57,0,0,1-.18,0A119.56,119.56,0,0,1,360,259.27a.51.51,0,0,1-.22-.49c0-.09,1.18-8.46,5.51-22.95a.57.57,0,0,1,.32-.34c1-.34,26.27,9.44,33.68,14.31a.49.49,0,0,1,.15.69.5.5,0,0,1-.69.15c-7.44-4.88-29.41-13.17-32.63-14.1a179.36,179.36,0,0,0-5.31,22,117.83,117.83,0,0,0,18.32,9,.52.52,0,0,1,.29.65A.51.51,0,0,1,378.93,268.56Z"/><circle class="cls-3" cx="366.94" cy="256.34" r="2.13"/></g><g id="NECK"><path class="cls-4" d="M338.61,180.28a7.23,7.23,0,0,1-6.37.5l-1.27-9-1.4-9.91,8.9-7.64.08-.07v5.72Z"/><path class="cls-3" d="M338.56,159.85c-.41,4-2,9.6-7.59,11.9l-1.4-9.91,8.9-7.64c0,.21.06.39.08.55a7.32,7.32,0,0,1,.06.82A22.52,22.52,0,0,1,338.56,159.85Z"/></g><g id="HEAD"><path class="cls-4" d="M319.63,152.72s-2.75-2.44-4.75-.38,1.5,7.88,6.87,7.25Z"/><path class="cls-3" d="M320.13,157.34a.5.5,0,0,1-.4-.19,6.52,6.52,0,0,0-3.52-2.69.5.5,0,0,1-.41-.57.49.49,0,0,1,.57-.41c.08,0,2.1.35,4.15,3.06a.49.49,0,0,1-.39.8Z"/><path class="cls-4" d="M324.54,137.59c-7.86.9-7.58,12.5-5.08,20.59s10.42,12.08,16.17,4.41S340.63,135.76,324.54,137.59Z"/><path class="cls-3" d="M338.61,163.71l-.07-9.57-2.16-.24.25-5.93s-6.13,1.37-5.06-6.19c0,0-6.25,10-14,10.62s-14.75-7.43-13.81-10.25,4.9-.5,5.22-.32c-.46-.48-9.38-9.67-5.54-16.43,3.94-6.93,19.06,2,27.88,7.5,1.35.84,2.66,1.61,3.91,2.33-1-1.67-2.44-4.36-3.73-7.2-2.12-4.69,5.5-4.32,6.94,8.94,0,0,4.19-7.82,7.56-6.44,2.84,1.15-1.12,5.79-5.12,7.91,4,2.37,6.83,4.47,7.5,7.53C349.5,151.09,338.61,163.71,338.61,163.71Z"/><path class="cls-4" d="M337.5,150.89a4.32,4.32,0,0,1,4.63-3.34c3.91.21,3.16,9-4.75,8.67Z"/><path class="cls-3" d="M338.54,154.22h-.09a.5.5,0,0,1-.4-.58c0-.16.77-3.79,4.21-4.6a.49.49,0,0,1,.6.37.5.5,0,0,1-.37.6c-2.82.67-3.45,3.78-3.46,3.81A.49.49,0,0,1,338.54,154.22Z"/><path class="cls-3" d="M341.5,153.51a.49.49,0,0,1-.49-.41,3.32,3.32,0,0,0-1.25-1.84.5.5,0,1,1,.59-.81,4.22,4.22,0,0,1,1.64,2.47.5.5,0,0,1-.4.58Z"/></g><g id="FACE"><path class="cls-3" d="M332.12,148.83s-2-2.8-4.16-1.24c0,0-.18-.68-.79-.59s-.35,2-.35,2A13.3,13.3,0,0,1,332.12,148.83Z"/><path class="cls-3" d="M318.22,150.89s.53-3.13,2.25-2.06c0,0,.11-.57.51-.59.69,0,.64,1.78.64,1.78A5.59,5.59,0,0,0,318.22,150.89Z"/><ellipse class="cls-3" cx="329.35" cy="153.6" rx="1.3" ry="1.61" transform="translate(-23.94 68.45) rotate(-11.45)"/><circle class="cls-6" cx="328.96" cy="153.1" r="0.35"/><ellipse class="cls-3" cx="321.84" cy="155.12" rx="1.3" ry="1.61" transform="translate(-24.39 66.99) rotate(-11.45)"/><circle class="cls-6" cx="321.45" cy="154.62" r="0.35"/><path class="cls-3" d="M325.49,160.88a1.72,1.72,0,0,1-1.62-.91c-.61-1.14.41-2.17,1-2.55a.49.49,0,0,1,.68.16.5.5,0,0,1-.16.69s-1,.63-.68,1.23c.41.76,1.7.15,1.71.15a.5.5,0,1,1,.44.9A3.57,3.57,0,0,1,325.49,160.88Z"/><path class="cls-3" d="M329.46,157.74a4.11,4.11,0,1,1,1.76-.4A4.19,4.19,0,0,1,329.46,157.74Zm0-7.21a3,3,0,0,0-1.33.3,3.1,3.1,0,0,0-1.47,4.13,3.1,3.1,0,1,0,2.8-4.43Z"/><path class="cls-3" d="M320.69,159.27a4.1,4.1,0,0,1-3.71-2.34,4.12,4.12,0,0,1,1.94-5.47,4.11,4.11,0,0,1,5.47,1.95,4.09,4.09,0,0,1-3.7,5.86Zm0-7.21a3.16,3.16,0,0,0-1.33.31,3.1,3.1,0,1,0,4.14,1.47,3.06,3.06,0,0,0-1.76-1.59A3,3,0,0,0,320.68,152.06Z"/><path class="cls-3" d="M326.71,163.25c-.25,0-.4,0-.43,0a.5.5,0,0,1-.42-.56.49.49,0,0,1,.56-.43c.11,0,2.79.32,4.74-2.74a.5.5,0,0,1,.84.54A6.26,6.26,0,0,1,326.71,163.25Z"/></g><g id="CHAT_1" data-name="CHAT 1"><path class="cls-2" d="M323.19,75.25V91.68a4.9,4.9,0,0,1-4.9,4.91H308.14v10.63L297.51,96.59h-26a4.91,4.91,0,0,1-4.91-4.91V75.25a4.91,4.91,0,0,1,4.91-4.91h46.75A4.9,4.9,0,0,1,323.19,75.25Z"/><rect class="cls-5" x="274.88" y="76.72" width="18.13" height="3.63" rx="1.19"/><rect class="cls-5" x="274.88" y="84.59" width="31" height="3.63" rx="1.19"/></g><g id="CHAT_2" data-name="CHAT 2"><path class="cls-5" d="M349.63,113.59V130a4.9,4.9,0,0,0,4.9,4.91h10.15v10.63l10.63-10.63h26a4.91,4.91,0,0,0,4.91-4.91V113.59a4.91,4.91,0,0,0-4.91-4.91H354.53A4.9,4.9,0,0,0,349.63,113.59Z"/><circle class="cls-2" cx="361.13" cy="121.82" r="3.5"/><circle class="cls-2" cx="377.91" cy="121.82" r="3.5"/><circle class="cls-2" cx="394.69" cy="121.82" r="3.5"/></g></g></svg>