<svg xmlns="http://www.w3.org/2000/svg" viewBox="0 0 208 208"><defs><style>.cls-1{fill:#fff;}</style></defs><g id="Layer_2" data-name="Layer 2"><g id="Layer_1-2" data-name="Layer 1"><path class="cls-1" d="M54.35,175.88c-9.55,0-17.57-5-24.83-14.7l-6.61,7.93a104,104,0,0,1,121.36-161,88.37,88.37,0,0,0-14-1.06H73.68V65.31H26.28V90.14h47v63.59C73.25,168.43,66.76,175.88,54.35,175.88Z"/><path class="cls-1" d="M104,77.48h0V31.76h25.17l.17,11.75h15.9L145,54.69H112.05V66.35H156.5V77.57Z"/><path class="cls-1" d="M208,104A104.06,104.06,0,0,1,65.65,200.7C90.81,197.54,104,181.45,104,152V101.64h27.82l25.24,36.54h32.52L160.23,96c17-7.3,26.92-21.73,26.92-41.4a50.24,50.24,0,0,0-2.61-16.41A103.5,103.5,0,0,1,208,104Z"/><path class="cls-2" d="M104,65.31V77.48h0V65.31Z"/></g></g></svg>