<svg xmlns="http://www.w3.org/2000/svg" viewBox="0 0 512 384"><defs><style>.cls-1{fill:#ddca7d;}.cls-2{fill:#36393b;}.cls-3{fill:#cfd11a;}.cls-4{fill:#f06449;}</style></defs><g id="Layer_2" data-name="Layer 2"><g id="Layer_1-2" data-name="Layer 1"><rect id="bars" class="cls-1" x="320" y="96" width="64" height="160" rx="12.8"/><rect id="bars-2" data-name="bars" class="cls-2" x="416" width="64" height="256" rx="12.8"/><rect id="bars-3" data-name="bars" class="cls-3" x="128" y="160" width="64" height="96" rx="12.8"/><rect id="bars-4" data-name="bars" class="cls-4" x="224" y="32" width="64" height="224" rx="12.8"/><path d="M496,320H64V16A16,16,0,0,0,48,0H16A16,16,0,0,0,0,16V352a32,32,0,0,0,32,32H496a16,16,0,0,0,16-16V336A16,16,0,0,0,496,320Z"/></g></g></svg>